<svg width="1024" height="1024" viewBox="0 0 1024 1024" fill="none" xmlns="http://www.w3.org/2000/svg">
<path d="M508.827 0.772461C224.654 0.772461 0.40625 305.969 0.40625 710.148L229.547 749.213C169.075 696.515 206.161 288.058 508.827 288.058C811.493 288.058 858.584 696.417 797.134 749.213L1023.37 710.148C1023.37 305.969 793.001 0.772461 508.827 0.772461Z" fill="#81DA56"/>
<path d="M1023.39 707.988C1023.39 845.616 861.716 835.104 753.987 874.753C646.259 914.402 544.677 1023.77 511.891 1023.77C476.573 1023.77 323.282 888.651 272.129 874.753C177.65 841.24 0.390625 845.616 0.390625 707.988C0.390625 426.078 229.397 822.803 511.891 822.803C794.384 822.803 1023.39 426.078 1023.39 707.988Z" fill="#81DA56"/>
<path d="M116.646 836.315C199.184 857.711 259.346 867.78 281.722 879.107C442.204 945.968 477.586 1021.56 509.669 1021.56C550.626 1021.56 578.994 843.184 578.994 843.184C465.003 803.607 384.094 670.917 194.953 615.54C194.953 615.54 56.6348 567.484 27.1417 598.443C-5.58102 675.828 -34.9724 794.619 116.646 836.315Z" fill="url(#paint0_linear)"/>
<path d="M732.759 881.38C573.081 963.17 560.416 1015.19 507.22 1022.74C507.22 1022.74 488.789 1020.59 402.516 951.423C362.868 919.636 291.022 883.112 291.022 883.112C497.05 914.559 584.058 679.569 824.424 615.573C824.424 615.573 892.438 799.59 732.759 881.38Z" fill="#81DA56"/>
<defs>
<linearGradient id="paint0_linear" x1="297.596" y1="598.39" x2="420.618" y2="879.08" gradientUnits="userSpaceOnUse">
<stop stop-color="#81DA56"/>
<stop offset="0.233393" stop-color="#77D34A"/>
<stop offset="0.433117" stop-color="#6BCD3C"/>
<stop offset="0.580887" stop-color="#65C139"/>
<stop offset="0.699298" stop-color="#60B338"/>
<stop offset="0.838132" stop-color="#529F2D"/>
<stop offset="0.928389" stop-color="#4B9726"/>
<stop offset="1" stop-color="#3C7E1B"/>
<stop offset="1" stop-color="#438E1F"/>
</linearGradient>
</defs>
</svg>
