<?xml version="1.0" encoding="UTF-8"?>
<!DOCTYPE svg PUBLIC "-//W3C//DTD SVG 1.1//EN" "http://www.w3.org/Graphics/SVG/1.1/DTD/svg11.dtd">
<svg version="1.1" xmlns="http://www.w3.org/2000/svg" xmlns:xlink="http://www.w3.org/1999/xlink" x="0" y="0" width="100" height="100" viewBox="0, 0, 100, 100">
  <defs>
    <linearGradient id="Gradient_1" gradientUnits="userSpaceOnUse" x1="2.763" y1="-0.313" x2="94.027" y2="95.408">
      <stop offset="0" stop-color="#56CCF2"/>
      <stop offset="1" stop-color="#2F80ED"/>
    </linearGradient>
  </defs>
  <g id="Layer_1">
    <path d="M63.697,1.417 C64.354,0.381 65.529,-0.308 66.763,-0.313 C68.492,-0.317 70.138,0.654 71.139,2.037 C72.082,3.359 72.373,5.03 72.375,6.626 C72.36,8.87 71.843,11.075 71.227,13.222 C69.688,18.289 67.597,23.168 66.035,28.229 C64.315,33.972 63.49,40.372 65.801,46.074 C67.009,42.702 68.204,39.323 69.408,35.947 C69.75,35.055 70.2,34.041 71.156,33.675 C72.487,33.201 73.844,34.59 73.805,35.876 C73.441,37.749 72.735,39.534 72.179,41.356 C67.676,54.892 62.633,68.241 57.777,81.655 C64.235,75.75 70.713,69.867 77.179,63.973 C79.04,62.279 81.058,60.433 81.628,57.873 C82.197,55.36 81.139,52.866 79.94,50.708 C78.555,48.133 76.787,45.684 76.137,42.786 C75.81,41.285 75.909,39.558 76.921,38.328 C77.651,37.402 78.98,36.924 80.101,37.376 C81.208,37.799 81.876,38.862 82.399,39.866 C84.156,43.391 85.252,47.243 85.629,51.165 C86.829,48.744 88.043,46.333 89.245,43.914 C89.971,42.489 90.612,40.96 91.79,39.834 C92.501,39.132 93.537,38.69 94.54,38.918 C95.798,39.196 96.681,40.34 97.019,41.528 C97.402,42.79 96.997,44.104 96.59,45.303 C95.378,48.656 93.474,51.69 91.639,54.727 C89.081,58.747 86.364,62.67 83.398,66.402 C85.093,65.27 86.878,64.079 88.954,63.842 C90.918,63.579 93.089,64.729 93.739,66.646 C94.174,67.951 93.47,69.428 92.288,70.065 C90.554,71.032 88.502,71.019 86.575,71.105 C79.582,71.297 72.767,74.74 68.428,80.221 C65.004,84.592 63.255,90.023 59.78,94.358 C57.588,97 54.491,100.317 51.084,99.584 C46.547,98.609 46.547,91.518 45.416,88.003 C44.833,86.231 43.739,84.612 42.221,83.507 C40.894,82.527 39.305,81.965 37.699,81.657 C34.012,80.949 30.209,81.323 26.531,80.563 C24.69,80.188 22.877,79.45 21.471,78.177 C20.131,77.001 19.205,75.427 18.563,73.78 C17.177,70.192 16.895,66.299 15.663,62.666 C13.88,57.436 10.352,52.812 5.757,49.741 C4.788,49.087 3.735,48.449 3.108,47.429 C2.598,46.632 2.643,45.499 3.311,44.804 C4.437,43.578 6.472,43.477 7.773,44.491 C10.439,46.382 10.824,50.056 13.309,52.112 C13.313,48.718 13.296,45.327 13.29,41.935 C13.298,40.955 13.189,39.9 13.679,39.009 C14.125,38.165 15.359,37.936 16.076,38.569 C17.045,39.381 17.34,40.706 17.478,41.905 C17.96,46.58 18.426,51.257 18.91,55.935 C21.346,53.747 22.465,50.196 21.677,47.011 C21.438,45.994 21.051,44.948 21.27,43.893 C21.449,43.008 22.388,42.385 23.273,42.543 C24.268,42.678 24.978,43.531 25.351,44.407 C25.945,45.859 25.947,47.476 25.827,49.018 C25.474,52.53 23.988,55.773 22.963,59.115 C21.964,62.065 21.277,65.343 22.278,68.39 C23.17,71.239 25.431,73.491 28.084,74.768 C31.359,76.377 35.048,76.877 38.657,77.019 C36.463,73.179 34.077,69.116 34.118,64.548 C34.161,59.949 37.085,56.075 37.875,51.636 C39.221,44.272 35.898,36.267 29.712,32.042 C26.964,30.154 23.665,29.314 20.842,27.563 C18.288,26 15.994,23.218 16.395,20.05 C18.335,19.299 20.501,19.779 22.252,20.787 C25.674,22.613 27.851,26.075 31.29,27.873 C32.498,28.532 33.883,28.858 35.259,28.774 C36.004,26.988 35.259,24.988 34.057,23.597 C31.796,20.873 27.98,20.212 25.616,17.608 C24.431,16.249 23.77,14.307 24.268,12.53 C24.673,11.126 26.126,10.17 27.573,10.276 C29.716,10.409 31.561,11.751 33.026,13.228 C37.873,18.073 40.662,24.663 41.756,31.36 C43.048,39.259 42.044,47.317 40.453,55.095 C40.156,56.68 39.6,58.305 40.011,59.923 C40.188,60.672 40.728,61.445 41.558,61.512 C42.699,61.585 43.642,60.808 44.473,60.127 C47.072,58.004 49.138,55.146 49.99,51.873 C50.656,49.487 50.675,46.989 50.628,44.532 C50.641,43.303 50.55,41.946 51.285,40.882 C51.81,40.06 52.79,39.414 53.798,39.653 C54.588,39.803 55.148,40.488 55.389,41.222 C55.777,42.431 55.718,43.736 55.484,44.969 C54.741,48.372 54.069,51.819 52.723,55.05 C51.773,57.369 50.49,59.574 48.752,61.391 C46.836,63.422 44.469,65.05 42.925,67.417 C41.872,69.034 41.191,71.043 41.648,72.975 C41.982,74.516 43.155,75.774 44.57,76.416 C46.631,77.357 49.133,77.309 51.142,76.25 C52.736,75.388 53.869,73.898 54.771,72.367 C56.36,69.613 57.323,66.555 58.122,63.493 C59.351,58.549 60.075,53.48 60.359,48.393 C60.684,42.96 59.698,37.342 56.959,32.596 C55.503,30.055 53.444,27.891 51.039,26.235 C48.873,24.624 46.491,23.229 44.734,21.142 C43.091,19.208 41.952,16.598 42.55,14.031 C43.674,13.325 45.093,13.202 46.338,13.644 C48.687,14.443 50.527,16.329 51.713,18.463 C53.324,20.978 54.668,23.971 57.506,25.337 C55.197,20.795 52.816,16.292 50.479,11.766 C49.719,10.237 48.97,8.566 49.168,6.817 C49.312,5.484 50.55,4.391 51.887,4.397 C53.074,4.401 54.187,5.069 54.894,5.999 C55.701,7.046 56.087,8.336 56.451,9.589 C58.313,16.071 60.174,22.55 62.043,29.03 C64.392,24.555 65.385,19.37 64.717,14.348 C64.425,11.686 63.643,9.115 63.023,6.518 C62.601,4.819 62.728,2.913 63.697,1.417 z" fill="url(#Gradient_1)" id="Shape"/>
  </g>
</svg>
