<svg width="1024" height="1024" viewBox="0 0 1024 1024" fill="none" xmlns="http://www.w3.org/2000/svg">
<path fill-rule="evenodd" clip-rule="evenodd" d="M0.451839 699.866C4.10606 300.649 226.995 0.461914 508.827 0.461914C790.488 0.461914 1019.29 300.284 1023.32 699.139C1023.37 701.913 1023.39 704.759 1023.39 707.678C1023.39 810.566 933.033 830.662 842.408 850.817C811.809 857.622 781.18 864.435 753.987 874.443C693.089 896.856 634.154 941.55 588.501 976.172C553.395 1002.79 526.143 1023.46 511.891 1023.46C493.787 1023.46 444.685 987.958 394.232 951.477C362.271 928.368 329.768 904.866 304.259 889.748C296.083 885.375 291.022 882.802 291.022 882.802L291.241 882.835C288.118 881.486 284.945 880.14 281.722 878.797C267.893 871.796 239.631 865.276 200.575 856.266L200.574 856.266C193.378 854.606 185.817 852.862 177.912 851.014C162.85 847.705 147.644 844.192 132.803 840.125C127.519 838.799 122.132 837.427 116.646 836.005C72.4025 823.837 43.5724 805.105 25.7406 782.753C9.92126 763.868 0.390625 739.59 0.390625 707.678C0.390625 705.014 0.411079 702.41 0.451839 699.866ZM206.549 618.762C309.348 651.319 379.534 706.727 441.461 755.614L441.462 755.615C466.324 775.242 489.856 793.819 513.632 809.444C531.846 795.584 550.043 780.644 568.674 765.347L568.682 765.341L568.684 765.339C638.099 708.348 713.536 646.413 818.288 616.943C803.514 479.265 716.102 287.747 508.827 287.747C300.66 287.747 218.122 480.965 206.549 618.762Z" fill="#B2B2B2" fill-opacity="0.3"/>
</svg>
