<?xml version="1.0" encoding="UTF-8"?>
<!DOCTYPE svg PUBLIC "-//W3C//DTD SVG 1.1//EN" "http://www.w3.org/Graphics/SVG/1.1/DTD/svg11.dtd">
<svg version="1.1" xmlns="http://www.w3.org/2000/svg" xmlns:xlink="http://www.w3.org/1999/xlink" x="0" y="0" width="100" height="100" viewBox="0, 0, 100, 100">
  <defs>
    <linearGradient id="Gradient_1" gradientUnits="userSpaceOnUse" x1="209.998" y1="224.042" x2="287.332" y2="298.658" gradientTransform="matrix(1, 0, 0, 1, -200, -213)">
      <stop offset="0" stop-color="#62A0EA"/>
      <stop offset="1" stop-color="#1A5FB4"/>
    </linearGradient>
  </defs>
  <g id="Layer_1">
    <g id="path6008">
      <path d="M48.608,11.819 C46.325,13.284 45.666,16.318 47.138,18.594 C55.225,31.118 57.134,40.564 56.306,48.842 C52.958,64.695 45.682,67.911 39.324,67.911 C33.116,67.911 34.778,57.694 39.445,54.704 C42.23,52.965 45.798,51.834 48.537,51.834 C51.25,51.834 53.45,49.642 53.45,46.936 C53.45,44.23 51.25,42.037 48.537,42.037 C45.338,42.037 42.201,42.709 39.272,43.853 C39.87,41.03 40.091,37.978 39.318,34.735 C38.143,29.81 34.762,25.106 28.892,20.546 C27.864,19.746 26.56,19.387 25.266,19.547 C23.973,19.707 22.796,20.373 21.995,21.398 C20.33,23.534 20.715,26.613 22.858,28.274 C27.64,31.989 29.219,34.738 29.759,37.002 C30.299,39.265 29.865,41.693 28.78,45.029 C27.394,49.525 25.784,53.538 25.078,57.387 C24.731,59.282 24.702,61.343 24.612,62.99 C21.168,59.634 19.82,55.202 19.82,48.726 C19.819,46.02 17.619,43.826 14.906,43.827 C12.195,43.83 9.998,46.022 9.998,48.726 C9.998,57.57 12.584,65.986 19.516,71.601 C25.791,77.579 41.749,75.37 41.749,84.967 C41.749,87.676 45.714,88.994 48.426,88.994 C51.209,88.994 54.71,87.134 54.71,84.967 C54.71,74.078 66.186,67.459 85.078,67.488 C87.792,67.492 89.994,65.301 89.998,62.595 C90.002,59.889 87.807,57.691 85.094,57.686 C83.802,57.685 82.542,57.729 81.301,57.802 C83.413,52.835 84.35,47.366 84.156,41.459 C84.066,38.754 81.796,36.634 79.085,36.722 C76.37,36.81 74.244,39.077 74.333,41.783 C74.589,49.518 74.299,56.424 68.537,60.065 C66.898,61.099 64.994,61.997 63.187,61.997 C64.59,58.182 65.649,54.156 66.082,49.816 C66.359,47.046 66.389,43.756 66.073,41.2 C65.582,37.24 64.99,32.749 66.494,29.366 C67.844,26.452 70.87,25.232 75.312,25.232 C78.023,25.23 80.22,23.037 80.221,20.334 C80.222,17.627 78.025,15.432 75.312,15.43 C68.71,15.43 63.706,18.904 60.87,23.102 C59.386,19.934 57.58,16.669 55.398,13.29 C54.693,12.198 53.582,11.43 52.31,11.154 C51.679,11.018 51.028,11.006 50.393,11.119 C49.758,11.234 49.151,11.471 48.608,11.819 z" fill="url(#Gradient_1)"/>
      <path d="M50.239,3.082 C53.179,3.136 51.93,2.991 54.005,3.336 C57.346,4.061 60.265,6.078 62.118,8.949 L63.123,10.561 C66.826,8.362 71.068,7.561 75.319,7.43 C82.445,7.436 88.225,13.21 88.221,20.336 C88.238,24.02 86.639,27.172 84.086,29.721 C88.987,31.499 91.733,36.199 92.152,41.197 C92.18,44.58 92.249,44.83 91.827,48.956 C91.745,49.763 91.546,50.554 91.405,51.353 C95.577,53.799 97.765,57.84 97.997,62.607 C97.987,69.735 92.194,75.498 85.066,75.488 C70.02,75.465 62.71,79.675 62.71,84.967 C62.71,92.511 55.258,96.994 48.426,96.994 C45.777,96.994 42.898,96.36 40.479,95.145 C36.759,93.25 34.123,89.987 33.806,85.737 C32.068,84.879 30.15,84.434 28.286,83.932 C27.813,83.807 27.57,83.743 27.327,83.678 C22.661,82.517 18.074,80.985 14.415,77.761 C5.537,70.611 2.229,59.744 1.998,48.723 C2,41.6 7.778,35.834 14.904,35.827 C17.181,35.748 18.943,36.49 20.983,37.35 C20.117,36.294 19.008,35.452 17.955,34.596 C12.316,30.222 11.298,22.107 15.69,16.475 C17.796,13.777 20.888,12.028 24.284,11.608 C27.68,11.188 31.105,12.131 33.799,14.229 C37.211,17.046 35.576,15.553 38.702,18.711 C37.495,13.28 39.864,8.25 44.288,5.086 L44.292,5.083 C45.718,4.17 47.309,3.546 48.984,3.244 L50.239,3.082 z M51.353,11.043 L50.393,11.119 C49.758,11.234 49.151,11.471 48.608,11.819 C46.325,13.284 45.666,16.318 47.138,18.594 C55.225,31.118 57.134,40.564 56.306,48.842 C52.958,64.695 45.682,67.911 39.324,67.911 C33.116,67.911 34.778,57.694 39.445,54.704 C42.23,52.965 45.798,51.834 48.537,51.834 C51.25,51.834 53.45,49.642 53.45,46.936 C53.45,44.23 51.25,42.037 48.537,42.037 C45.338,42.037 42.201,42.709 39.272,43.853 C39.87,41.03 40.091,37.978 39.318,34.735 C38.143,29.81 34.762,25.106 28.892,20.546 C27.864,19.746 26.56,19.387 25.266,19.547 C23.973,19.707 22.796,20.373 21.995,21.398 C20.33,23.534 20.715,26.613 22.858,28.274 C27.64,31.989 29.219,34.738 29.759,37.002 C30.299,39.265 29.865,41.693 28.78,45.029 C27.394,49.525 25.784,53.538 25.078,57.387 C24.731,59.282 24.702,61.343 24.612,62.99 C21.168,59.634 19.82,55.202 19.82,48.726 C19.819,46.02 17.619,43.826 14.906,43.827 C12.195,43.83 9.998,46.022 9.998,48.726 C9.998,57.57 12.584,65.986 19.516,71.601 C25.791,77.579 41.749,75.37 41.749,84.967 C41.749,87.676 45.714,88.994 48.426,88.994 C51.209,88.994 54.71,87.134 54.71,84.967 C54.71,74.078 66.186,67.459 85.078,67.488 C87.792,67.492 89.994,65.301 89.998,62.595 C90.002,59.889 87.807,57.691 85.094,57.686 C83.802,57.685 82.542,57.729 81.301,57.802 C83.413,52.835 84.35,47.366 84.156,41.459 C84.066,38.754 81.796,36.634 79.085,36.722 C76.37,36.81 74.244,39.077 74.333,41.783 C74.589,49.518 74.299,56.424 68.537,60.065 C66.898,61.099 64.994,61.997 63.187,61.997 C64.59,58.182 65.649,54.156 66.082,49.816 C66.359,47.046 66.389,43.756 66.073,41.2 C65.582,37.24 64.99,32.749 66.494,29.366 C67.844,26.452 70.87,25.232 75.312,25.232 C78.023,25.23 80.22,23.037 80.221,20.334 C80.222,17.627 78.025,15.432 75.312,15.43 C68.71,15.43 63.706,18.904 60.87,23.102 C59.386,19.934 57.58,16.669 55.398,13.29 C54.693,12.198 53.582,11.43 52.31,11.154 L51.353,11.043 z" fill="#FFFFFF"/>
    </g>
  </g>
</svg>
