<?xml version="1.0" encoding="UTF-8"?>
<!DOCTYPE svg PUBLIC "-//W3C//DTD SVG 1.1//EN" "http://www.w3.org/Graphics/SVG/1.1/DTD/svg11.dtd">
<svg version="1.1" xmlns="http://www.w3.org/2000/svg" xmlns:xlink="http://www.w3.org/1999/xlink" x="0" y="0" width="100" height="100" viewBox="0, 0, 100, 100">
  <defs>
    <linearGradient id="Gradient_1" gradientUnits="userSpaceOnUse" x1="209.998" y1="224.042" x2="287.332" y2="298.658" gradientTransform="matrix(1, 0, 0, 1, -200, -213)">
      <stop offset="0" stop-color="#62A0EA"/>
      <stop offset="1" stop-color="#1A5FB4"/>
    </linearGradient>
  </defs>
  <g id="Layer_1">
    <g id="path6008">
      <path d="M48.608,11.819 C46.325,13.284 45.666,16.318 47.138,18.594 C55.225,31.118 57.134,40.564 56.306,48.842 C52.958,64.695 45.682,67.911 39.324,67.911 C33.116,67.911 34.778,57.694 39.445,54.704 C42.23,52.965 45.798,51.834 48.537,51.834 C51.25,51.834 53.45,49.642 53.45,46.936 C53.45,44.23 51.25,42.037 48.537,42.037 C45.338,42.037 42.201,42.709 39.272,43.853 C39.87,41.03 40.091,37.978 39.318,34.735 C38.143,29.81 34.762,25.106 28.892,20.546 C27.864,19.746 26.56,19.387 25.266,19.547 C23.973,19.707 22.796,20.373 21.995,21.398 C20.33,23.534 20.715,26.613 22.858,28.274 C27.64,31.989 29.219,34.738 29.759,37.002 C30.299,39.265 29.865,41.693 28.78,45.029 C27.394,49.525 25.784,53.538 25.078,57.387 C24.731,59.282 24.702,61.343 24.612,62.99 C21.168,59.634 19.82,55.202 19.82,48.726 C19.819,46.02 17.619,43.826 14.906,43.827 C12.195,43.83 9.998,46.022 9.998,48.726 C9.998,57.57 12.584,65.986 19.516,71.601 C25.791,77.579 41.749,75.37 41.749,84.967 C41.749,87.676 45.714,88.994 48.426,88.994 C51.209,88.994 54.71,87.134 54.71,84.967 C54.71,74.078 66.186,67.459 85.078,67.488 C87.792,67.492 89.994,65.301 89.998,62.595 C90.002,59.889 87.807,57.691 85.094,57.686 C83.802,57.685 82.542,57.729 81.301,57.802 C83.413,52.835 84.35,47.366 84.156,41.459 C84.066,38.754 81.796,36.634 79.085,36.722 C76.37,36.81 74.244,39.077 74.333,41.783 C74.589,49.518 74.299,56.424 68.537,60.065 C66.898,61.099 64.994,61.997 63.187,61.997 C64.59,58.182 65.649,54.156 66.082,49.816 C66.359,47.046 66.389,43.756 66.073,41.2 C65.582,37.24 64.99,32.749 66.494,29.366 C67.844,26.452 70.87,25.232 75.312,25.232 C78.023,25.23 80.22,23.037 80.221,20.334 C80.222,17.627 78.025,15.432 75.312,15.43 C68.71,15.43 63.706,18.904 60.87,23.102 C59.386,19.934 57.58,16.669 55.398,13.29 C54.693,12.198 53.582,11.43 52.31,11.154 C51.679,11.018 51.028,11.006 50.393,11.119 C49.758,11.234 49.151,11.471 48.608,11.819 z" fill="url(#Gradient_1)"/>
      <path d="M51.38,9.543 L52.627,9.688 C54.288,10.049 55.738,11.051 56.658,12.476 C58.276,15.015 59.841,17.599 61.168,20.305 C64.95,16.073 69.768,14.271 75.313,13.93 C78.854,13.933 81.723,16.799 81.721,20.334 C81.72,23.866 78.851,26.729 75.312,26.732 C71.231,26.732 68.874,27.798 67.864,29.975 C67.084,31.732 66.889,34.006 67.134,37.121 C67.209,38.07 67.307,38.962 67.493,40.463 C67.527,40.74 67.527,40.74 67.561,41.016 C67.88,43.594 67.875,46.968 67.575,49.965 C67.214,53.334 66.56,56.682 65.476,59.9 C66.925,59.354 66.162,59.702 67.735,58.797 C72.074,56.056 73.156,51.575 72.834,41.832 C72.718,38.296 75.495,35.338 79.036,35.223 C82.574,35.108 85.538,37.876 85.655,41.41 C85.775,45.091 85.468,48.785 84.637,52.378 C84.337,53.675 83.886,54.933 83.511,56.21 L85.096,56.186 C88.637,56.193 91.504,59.062 91.497,62.597 C91.492,66.133 88.617,68.993 85.076,68.988 C66.912,68.96 56.21,75.123 56.21,84.967 C56.21,88.042 52.135,90.494 48.426,90.494 C44.322,90.494 40.249,88.449 40.249,84.967 C40.249,81.212 37.817,79.734 29.951,77.649 C29.477,77.524 29.238,77.46 29,77.397 C23.47,75.924 20.732,74.831 18.481,72.687 L18.572,72.766 C11.739,67.232 8.498,58.854 8.498,48.725 C8.499,45.193 11.367,42.33 14.906,42.327 C18.446,42.326 21.319,45.19 21.32,48.726 C21.405,52.117 21.53,55.801 23.371,58.772 C23.499,57.69 23.423,58.242 23.603,57.117 C24.073,54.552 24.116,54.414 26.515,47.174 C26.839,46.195 27.102,45.381 27.354,44.565 C28.451,41.189 28.728,39.143 28.3,37.35 C27.741,35.004 25.94,32.568 21.938,29.46 C19.14,27.29 18.636,23.267 20.813,20.475 C21.858,19.136 23.394,18.267 25.082,18.059 C26.77,17.85 28.472,18.319 29.812,19.362 C35.867,24.065 39.501,29.038 40.777,34.387 C41.471,38.368 41.199,35.967 41.159,41.625 C46.877,40.501 44.403,40.744 48.537,40.537 C52.05,40.679 54.568,43.156 54.918,46.617 C55.481,36.714 50.992,27.566 45.878,19.408 C43.956,16.435 44.816,12.47 47.798,10.557 L47.799,10.556 C48.507,10.102 49.298,9.792 50.129,9.643 L51.38,9.543 z M51.353,11.043 L50.393,11.119 C49.758,11.234 49.151,11.471 48.608,11.819 C46.325,13.284 45.666,16.318 47.138,18.594 C55.225,31.118 57.134,40.564 56.306,48.842 C52.958,64.695 45.682,67.911 39.324,67.911 C33.116,67.911 34.778,57.694 39.445,54.704 C42.23,52.965 45.798,51.834 48.537,51.834 C51.25,51.834 53.45,49.642 53.45,46.936 C53.45,44.23 51.25,42.037 48.537,42.037 C45.338,42.037 42.201,42.709 39.272,43.853 C39.87,41.03 40.091,37.978 39.318,34.735 C38.143,29.81 34.762,25.106 28.892,20.546 C27.864,19.746 26.56,19.387 25.266,19.547 C23.973,19.707 22.796,20.373 21.995,21.398 C20.33,23.534 20.715,26.613 22.858,28.274 C27.64,31.989 29.219,34.738 29.759,37.002 C30.299,39.265 29.865,41.693 28.78,45.029 C27.394,49.525 25.784,53.538 25.078,57.387 C24.731,59.282 24.702,61.343 24.612,62.99 C21.168,59.634 19.82,55.202 19.82,48.726 C19.819,46.02 17.619,43.826 14.906,43.827 C12.195,43.83 9.998,46.022 9.998,48.726 C9.998,57.57 12.584,65.986 19.516,71.601 C25.791,77.579 41.749,75.37 41.749,84.967 C41.749,87.676 45.714,88.994 48.426,88.994 C51.209,88.994 54.71,87.134 54.71,84.967 C54.71,74.078 66.186,67.459 85.078,67.488 C87.792,67.492 89.994,65.301 89.998,62.595 C90.002,59.889 87.807,57.691 85.094,57.686 C83.802,57.685 82.542,57.729 81.301,57.802 C83.413,52.835 84.35,47.366 84.156,41.459 C84.066,38.754 81.796,36.634 79.085,36.722 C76.37,36.81 74.244,39.077 74.333,41.783 C74.589,49.518 74.299,56.424 68.537,60.065 C66.898,61.099 64.994,61.997 63.187,61.997 C64.59,58.182 65.649,54.156 66.082,49.816 C66.359,47.046 66.389,43.756 66.073,41.2 C65.582,37.24 64.99,32.749 66.494,29.366 C67.844,26.452 70.87,25.232 75.312,25.232 C78.023,25.23 80.22,23.037 80.221,20.334 C80.222,17.627 78.025,15.432 75.312,15.43 C68.71,15.43 63.706,18.904 60.87,23.102 C59.386,19.934 57.58,16.669 55.398,13.29 C54.693,12.198 53.582,11.43 52.31,11.154 L51.353,11.043 z M54.853,47.896 C54.531,51.24 51.552,53.031 48.537,53.334 C46.099,53.334 42.802,54.376 40.254,55.967 C38.446,57.125 37.003,59.908 36.802,62.543 C36.612,65.046 37.487,66.411 39.324,66.411 C49.27,66.396 52.9,56.878 54.817,48.625 L54.853,47.896 z" fill="#FFFFFF" fill-opacity="0.8"/>
    </g>
  </g>
</svg>
