<?xml version="1.0" encoding="utf-8"?>
<!-- Generator: Adobe Illustrator 28.1.0, SVG Export Plug-In . SVG Version: 6.00 Build 0)  -->
<svg version="1.1" id="Layer_1" xmlns="http://www.w3.org/2000/svg" xmlns:xlink="http://www.w3.org/1999/xlink" x="0px" y="0px"
	 viewBox="0 0 100 100" style="enable-background:new 0 0 100 100;" xml:space="preserve">
<style type="text/css">
	.st0{fill:url(#SVGID_1_);}
	.st1{fill:url(#SVGID_00000178182769926420474260000004093797582807617671_);}
	.st2{fill:url(#SVGID_00000067939905564794335340000008058929255888065439_);}
	.st3{fill:#7962FE;}
	.st4{fill:url(#SVGID_00000046305800698003949390000000909019419121031601_);}
	.st5{fill:url(#SVGID_00000048470929436719816380000009798483122036965010_);}
	.st6{fill:#321BB2;}
	.st7{fill:#05E6AD;}
	.st8{fill:url(#SVGID_00000165221597717140177900000005015078032875895179_);}
</style>
<g>
	
		<radialGradient id="SVGID_1_" cx="-351.9952" cy="453.2629" r="0.3206" gradientTransform="matrix(-93.9498 -1.3119 -1.9135 137.0359 -32155.4062 -62524.9922)" gradientUnits="userSpaceOnUse">
		<stop  offset="0" style="stop-color:#6447FF"/>
		<stop  offset="6.670000e-02" style="stop-color:#6348FE"/>
		<stop  offset="0.1333" style="stop-color:#614DFC"/>
		<stop  offset="0.2" style="stop-color:#5C54F8"/>
		<stop  offset="0.2667" style="stop-color:#565EF3"/>
		<stop  offset="0.3333" style="stop-color:#4E6CEC"/>
		<stop  offset="0.4" style="stop-color:#447BE4"/>
		<stop  offset="0.4667" style="stop-color:#3A8DDB"/>
		<stop  offset="0.5333" style="stop-color:#2F9FD1"/>
		<stop  offset="0.6" style="stop-color:#25B1C8"/>
		<stop  offset="0.6667" style="stop-color:#1BC0C0"/>
		<stop  offset="0.7333" style="stop-color:#13CEB9"/>
		<stop  offset="0.8" style="stop-color:#0DD8B4"/>
		<stop  offset="0.8667" style="stop-color:#08DFB0"/>
		<stop  offset="0.9333" style="stop-color:#06E4AE"/>
		<stop  offset="1" style="stop-color:#05E5AD"/>
	</radialGradient>
	<path class="st0" d="M36.2,22.8c3.9,0,7.6,0.8,11,2.3C39.7,29.3,34.5,38.9,34.5,50c0,11.1,5.2,20.7,12.6,24.9
		c-3.4,1.5-7.1,2.3-11,2.3C21.1,77.2,9,65,9,50C9,35,21.1,22.8,36.2,22.8z"/>
	
		<radialGradient id="SVGID_00000129897409368935324200000008488501937856108972_" cx="-355.2021" cy="456.1755" r="0.3206" gradientTransform="matrix(-50.2435 -14.3549 -14.7578 51.6535 -11047.6084 -28631.8555)" gradientUnits="userSpaceOnUse">
		<stop  offset="0" style="stop-color:#6447FF"/>
		<stop  offset="6.670000e-02" style="stop-color:#6348FE"/>
		<stop  offset="0.1333" style="stop-color:#614DFC"/>
		<stop  offset="0.2" style="stop-color:#5C54F8"/>
		<stop  offset="0.2667" style="stop-color:#565EF3"/>
		<stop  offset="0.3333" style="stop-color:#4E6CEC"/>
		<stop  offset="0.4" style="stop-color:#447BE4"/>
		<stop  offset="0.4667" style="stop-color:#3A8DDB"/>
		<stop  offset="0.5333" style="stop-color:#2F9FD1"/>
		<stop  offset="0.6" style="stop-color:#25B1C8"/>
		<stop  offset="0.6667" style="stop-color:#1BC0C0"/>
		<stop  offset="0.7333" style="stop-color:#13CEB9"/>
		<stop  offset="0.8" style="stop-color:#0DD8B4"/>
		<stop  offset="0.8667" style="stop-color:#08DFB0"/>
		<stop  offset="0.9333" style="stop-color:#06E4AE"/>
		<stop  offset="1" style="stop-color:#05E5AD"/>
	</radialGradient>
	<path style="fill:url(#SVGID_00000129897409368935324200000008488501937856108972_);" d="M57.6,33.3c-2.7-3.5-6.3-6.3-10.5-8.2
		c2.6-1.5,5.5-2.3,8.5-2.3c2.9,0,5.6,0.7,8.1,2.1C61.3,26.7,59.2,29.6,57.6,33.3L57.6,33.3z"/>
	
		<radialGradient id="SVGID_00000007388195002462130950000001573265868038943374_" cx="-354.713" cy="454.5103" r="0.3206" gradientTransform="matrix(-50.2435 -14.3549 -14.7578 51.6535 -11047.6084 -28494.9141)" gradientUnits="userSpaceOnUse">
		<stop  offset="0" style="stop-color:#6447FF"/>
		<stop  offset="6.670000e-02" style="stop-color:#6348FE"/>
		<stop  offset="0.1333" style="stop-color:#614DFC"/>
		<stop  offset="0.2" style="stop-color:#5C54F8"/>
		<stop  offset="0.2667" style="stop-color:#565EF3"/>
		<stop  offset="0.3333" style="stop-color:#4E6CEC"/>
		<stop  offset="0.4" style="stop-color:#447BE4"/>
		<stop  offset="0.4667" style="stop-color:#3A8DDB"/>
		<stop  offset="0.5333" style="stop-color:#2F9FD1"/>
		<stop  offset="0.6" style="stop-color:#25B1C8"/>
		<stop  offset="0.6667" style="stop-color:#1BC0C0"/>
		<stop  offset="0.7333" style="stop-color:#13CEB9"/>
		<stop  offset="0.8" style="stop-color:#0DD8B4"/>
		<stop  offset="0.8667" style="stop-color:#08DFB0"/>
		<stop  offset="0.9333" style="stop-color:#06E4AE"/>
		<stop  offset="1" style="stop-color:#05E5AD"/>
	</radialGradient>
	<path style="fill:url(#SVGID_00000007388195002462130950000001573265868038943374_);" d="M57.6,66.7c1.6,3.7,3.7,6.6,6.1,8.4
		c-2.5,1.3-5.2,2.1-8.1,2.1c-3,0-5.9-0.8-8.5-2.3C51.3,73.1,54.8,70.2,57.6,66.7L57.6,66.7z"/>
	<path class="st3" d="M34.5,50c0-11.1,5.2-20.7,12.6-24.9c4.1,1.8,7.7,4.7,10.5,8.2c-2,4.6-3.2,10.4-3.2,16.7
		c0,6.3,1.2,12.1,3.2,16.7c-2.7,3.5-6.3,6.3-10.5,8.2C39.7,70.7,34.5,61.1,34.5,50z"/>
	
		<radialGradient id="SVGID_00000044179671915716915650000002488232340965535661_" cx="-354.8459" cy="453.1665" r="0.3206" gradientTransform="matrix(-45.966 -20.0362 -29.7075 68.1534 -2766.9541 -37921.3008)" gradientUnits="userSpaceOnUse">
		<stop  offset="0" style="stop-color:#6447FF"/>
		<stop  offset="6.670000e-02" style="stop-color:#6348FE"/>
		<stop  offset="0.1333" style="stop-color:#614DFC"/>
		<stop  offset="0.2" style="stop-color:#5C54F8"/>
		<stop  offset="0.2667" style="stop-color:#565EF3"/>
		<stop  offset="0.3333" style="stop-color:#4E6CEC"/>
		<stop  offset="0.4" style="stop-color:#447BE4"/>
		<stop  offset="0.4667" style="stop-color:#3A8DDB"/>
		<stop  offset="0.5333" style="stop-color:#2F9FD1"/>
		<stop  offset="0.6" style="stop-color:#25B1C8"/>
		<stop  offset="0.6667" style="stop-color:#1BC0C0"/>
		<stop  offset="0.7333" style="stop-color:#13CEB9"/>
		<stop  offset="0.8" style="stop-color:#0DD8B4"/>
		<stop  offset="0.8667" style="stop-color:#08DFB0"/>
		<stop  offset="0.9333" style="stop-color:#06E4AE"/>
		<stop  offset="1" style="stop-color:#05E5AD"/>
	</radialGradient>
	<path style="fill:url(#SVGID_00000044179671915716915650000002488232340965535661_);" d="M74.1,63.3c0.8,4.1,1.9,7.5,3.2,10
		c-2.3,2.5-4.9,3.9-7.8,3.9c-2,0-4-0.7-5.8-2.1C68.1,72.8,71.8,68.6,74.1,63.3L74.1,63.3z"/>
	
		<radialGradient id="SVGID_00000060008771048811513950000012189814542930400165_" cx="-355.5304" cy="454.2256" r="0.3206" gradientTransform="matrix(-45.966 -20.0362 -29.7075 68.1534 -2766.9541 -38047.7188)" gradientUnits="userSpaceOnUse">
		<stop  offset="0" style="stop-color:#6447FF"/>
		<stop  offset="6.670000e-02" style="stop-color:#6348FE"/>
		<stop  offset="0.1333" style="stop-color:#614DFC"/>
		<stop  offset="0.2" style="stop-color:#5C54F8"/>
		<stop  offset="0.2667" style="stop-color:#565EF3"/>
		<stop  offset="0.3333" style="stop-color:#4E6CEC"/>
		<stop  offset="0.4" style="stop-color:#447BE4"/>
		<stop  offset="0.4667" style="stop-color:#3A8DDB"/>
		<stop  offset="0.5333" style="stop-color:#2F9FD1"/>
		<stop  offset="0.6" style="stop-color:#25B1C8"/>
		<stop  offset="0.6667" style="stop-color:#1BC0C0"/>
		<stop  offset="0.7333" style="stop-color:#13CEB9"/>
		<stop  offset="0.8" style="stop-color:#0DD8B4"/>
		<stop  offset="0.8667" style="stop-color:#08DFB0"/>
		<stop  offset="0.9333" style="stop-color:#06E4AE"/>
		<stop  offset="1" style="stop-color:#05E5AD"/>
	</radialGradient>
	<path style="fill:url(#SVGID_00000060008771048811513950000012189814542930400165_);" d="M63.7,24.9c1.8-1.3,3.7-2.1,5.8-2.1
		c2.8,0,5.5,1.4,7.8,3.9c-1.3,2.4-2.5,5.9-3.2,10C71.8,31.4,68.1,27.2,63.7,24.9L63.7,24.9z"/>
	<path class="st3" d="M57.6,66.7c3.6-4.6,5.7-10.4,5.7-16.7c0-6.3-2.1-12.1-5.7-16.7c1.6-3.7,3.7-6.6,6.1-8.4
		c4.4,2.3,8,6.5,10.3,11.8c-0.7,3.9-1.2,8.5-1.2,13.3s0.4,9.4,1.2,13.3c-2.3,5.3-6,9.5-10.3,11.8C61.3,73.3,59.2,70.4,57.6,66.7
		L57.6,66.7z"/>
	<path class="st6" d="M57.6,66.7c-2-4.6-3.2-10.4-3.2-16.7c0-6.3,1.2-12.1,3.2-16.7c3.6,4.6,5.7,10.4,5.7,16.7
		C63.3,56.3,61.2,62.1,57.6,66.7z"/>
	<path class="st7" d="M77.3,26.7c1.4-2.5,3-3.9,4.7-3.9C87,22.8,91,35,91,50C91,65,87,77.2,82,77.2c-1.7,0-3.3-1.4-4.7-3.9
		c4.4-4.8,7.3-13.4,7.3-23.3C84.6,40.1,81.7,31.5,77.3,26.7z"/>
	
		<radialGradient id="SVGID_00000097480285207161696100000011519762426866383745_" cx="-342.2485" cy="448.8654" r="0.3206" gradientTransform="matrix(29.9068 0 0 -147.527 10318.1631 66269.4297)" gradientUnits="userSpaceOnUse">
		<stop  offset="0" style="stop-color:#05E5AD"/>
		<stop  offset="0.32" style="stop-color:#05E5AD;stop-opacity:0"/>
		<stop  offset="0.9028" style="stop-color:#6447FF"/>
	</radialGradient>
	<path style="fill:url(#SVGID_00000097480285207161696100000011519762426866383745_);" d="M77.3,26.7c1.4-2.5,3-3.9,4.7-3.9
		C87,22.8,91,35,91,50C91,65,87,77.2,82,77.2c-1.7,0-3.3-1.4-4.7-3.9c4.4-4.8,7.3-13.4,7.3-23.3C84.6,40.1,81.7,31.5,77.3,26.7z"/>
	<path class="st3" d="M76.8,50c0-4.9-1-9.4-2.7-13.3c0.8-4.1,1.9-7.5,3.2-10c4.4,4.8,7.3,13.4,7.3,23.3c0,9.9-2.9,18.5-7.3,23.3
		c-1.3-2.4-2.5-5.9-3.2-10C75.8,59.4,76.8,54.9,76.8,50z"/>
	<path class="st6" d="M74.1,63.3c-0.7-3.9-1.2-8.5-1.2-13.3c0-4.8,0.4-9.4,1.2-13.3c1.7,3.9,2.7,8.5,2.7,13.3
		C76.8,54.8,75.8,59.4,74.1,63.3z"/>
</g>
</svg>
