<?xml version="1.0" encoding="utf-8"?>
<!-- Generator: Adobe Illustrator 28.1.0, SVG Export Plug-In . SVG Version: 6.00 Build 0)  -->
<svg version="1.1" id="Layer_1" xmlns="http://www.w3.org/2000/svg" xmlns:xlink="http://www.w3.org/1999/xlink" x="0px" y="0px"
	 viewBox="0 0 100 100" style="enable-background:new 0 0 100 100;" xml:space="preserve">
<style type="text/css">
	.st0{fill:url(#SVGID_1_);}
	.st1{fill:url(#SVGID_00000007390529373600890780000014687049038884038795_);}
	.st2{fill:url(#SVGID_00000137847819562504321370000000396917496619569846_);}
	.st3{fill:#7962FE;}
	.st4{fill:url(#SVGID_00000040558815126239343080000002487656522151442097_);}
	.st5{fill:url(#SVGID_00000123437317290362411380000014297691090700017554_);}
	.st6{fill:#321BB2;}
	.st7{fill:#05E6AD;}
	.st8{fill:url(#SVGID_00000170276483782118741220000013427246085776949939_);}
</style>
<g>
	
		<radialGradient id="SVGID_1_" cx="-351.9885" cy="453.2631" r="0.3906" gradientTransform="matrix(-93.9498 -1.3119 -1.9135 137.0359 -32155.4062 -62524.9922)" gradientUnits="userSpaceOnUse">
		<stop  offset="0" style="stop-color:#6447FF"/>
		<stop  offset="6.670000e-02" style="stop-color:#6348FE"/>
		<stop  offset="0.1333" style="stop-color:#614DFC"/>
		<stop  offset="0.2" style="stop-color:#5C54F8"/>
		<stop  offset="0.2667" style="stop-color:#565EF3"/>
		<stop  offset="0.3333" style="stop-color:#4E6CEC"/>
		<stop  offset="0.4" style="stop-color:#447BE4"/>
		<stop  offset="0.4667" style="stop-color:#3A8DDB"/>
		<stop  offset="0.5333" style="stop-color:#2F9FD1"/>
		<stop  offset="0.6" style="stop-color:#25B1C8"/>
		<stop  offset="0.6667" style="stop-color:#1BC0C0"/>
		<stop  offset="0.7333" style="stop-color:#13CEB9"/>
		<stop  offset="0.8" style="stop-color:#0DD8B4"/>
		<stop  offset="0.8667" style="stop-color:#08DFB0"/>
		<stop  offset="0.9333" style="stop-color:#06E4AE"/>
		<stop  offset="1" style="stop-color:#05E5AD"/>
	</radialGradient>
	<path class="st0" d="M33.1,16.9c4.8,0,9.3,1,13.4,2.8C37.4,24.8,31.1,36.5,31.1,50c0,13.5,6.3,25.2,15.4,30.3
		c-4.1,1.8-8.6,2.8-13.4,2.8C14.8,83.1,0,68.3,0,50C0,31.7,14.8,16.9,33.1,16.9z"/>
	
		<radialGradient id="SVGID_00000008838059437585907560000008030557339106289543_" cx="-355.2472" cy="456.0788" r="0.3906" gradientTransform="matrix(-50.2435 -14.3549 -14.7578 51.6535 -11047.6084 -28631.8555)" gradientUnits="userSpaceOnUse">
		<stop  offset="0" style="stop-color:#6447FF"/>
		<stop  offset="6.670000e-02" style="stop-color:#6348FE"/>
		<stop  offset="0.1333" style="stop-color:#614DFC"/>
		<stop  offset="0.2" style="stop-color:#5C54F8"/>
		<stop  offset="0.2667" style="stop-color:#565EF3"/>
		<stop  offset="0.3333" style="stop-color:#4E6CEC"/>
		<stop  offset="0.4" style="stop-color:#447BE4"/>
		<stop  offset="0.4667" style="stop-color:#3A8DDB"/>
		<stop  offset="0.5333" style="stop-color:#2F9FD1"/>
		<stop  offset="0.6" style="stop-color:#25B1C8"/>
		<stop  offset="0.6667" style="stop-color:#1BC0C0"/>
		<stop  offset="0.7333" style="stop-color:#13CEB9"/>
		<stop  offset="0.8" style="stop-color:#0DD8B4"/>
		<stop  offset="0.8667" style="stop-color:#08DFB0"/>
		<stop  offset="0.9333" style="stop-color:#06E4AE"/>
		<stop  offset="1" style="stop-color:#05E5AD"/>
	</radialGradient>
	<path style="fill:url(#SVGID_00000008838059437585907560000008030557339106289543_);" d="M59.3,29.6c-3.4-4.3-7.7-7.7-12.8-10
		c3.2-1.8,6.7-2.8,10.4-2.8c3.5,0,6.8,0.9,9.9,2.5C63.8,21.6,61.2,25.2,59.3,29.6L59.3,29.6z"/>
	
		<radialGradient id="SVGID_00000086650608328772565390000001087026887682472609_" cx="-354.8084" cy="454.5853" r="0.3906" gradientTransform="matrix(-50.2435 -14.3549 -14.7578 51.6535 -11047.6084 -28494.9141)" gradientUnits="userSpaceOnUse">
		<stop  offset="0" style="stop-color:#6447FF"/>
		<stop  offset="6.670000e-02" style="stop-color:#6348FE"/>
		<stop  offset="0.1333" style="stop-color:#614DFC"/>
		<stop  offset="0.2" style="stop-color:#5C54F8"/>
		<stop  offset="0.2667" style="stop-color:#565EF3"/>
		<stop  offset="0.3333" style="stop-color:#4E6CEC"/>
		<stop  offset="0.4" style="stop-color:#447BE4"/>
		<stop  offset="0.4667" style="stop-color:#3A8DDB"/>
		<stop  offset="0.5333" style="stop-color:#2F9FD1"/>
		<stop  offset="0.6" style="stop-color:#25B1C8"/>
		<stop  offset="0.6667" style="stop-color:#1BC0C0"/>
		<stop  offset="0.7333" style="stop-color:#13CEB9"/>
		<stop  offset="0.8" style="stop-color:#0DD8B4"/>
		<stop  offset="0.8667" style="stop-color:#08DFB0"/>
		<stop  offset="0.9333" style="stop-color:#06E4AE"/>
		<stop  offset="1" style="stop-color:#05E5AD"/>
	</radialGradient>
	<path style="fill:url(#SVGID_00000086650608328772565390000001087026887682472609_);" d="M59.3,70.4c1.9,4.5,4.5,8,7.5,10.3
		c-3,1.6-6.4,2.5-9.9,2.5c-3.7,0-7.2-1-10.4-2.8C51.5,78.1,55.9,74.7,59.3,70.4L59.3,70.4z"/>
	<path class="st3" d="M31.1,50c0-13.5,6.3-25.2,15.4-30.3c5,2.2,9.4,5.7,12.8,10c-2.4,5.6-3.9,12.7-3.9,20.4
		c0,7.7,1.5,14.7,3.9,20.4c-3.4,4.3-7.7,7.7-12.8,10C37.4,75.2,31.1,63.5,31.1,50z"/>
	
		<radialGradient id="SVGID_00000023255380273415410320000011123778238376014726_" cx="-355.0122" cy="453.1924" r="0.3906" gradientTransform="matrix(-45.966 -20.0362 -29.7075 68.1534 -2766.9541 -37921.3008)" gradientUnits="userSpaceOnUse">
		<stop  offset="0" style="stop-color:#6447FF"/>
		<stop  offset="6.670000e-02" style="stop-color:#6348FE"/>
		<stop  offset="0.1333" style="stop-color:#614DFC"/>
		<stop  offset="0.2" style="stop-color:#5C54F8"/>
		<stop  offset="0.2667" style="stop-color:#565EF3"/>
		<stop  offset="0.3333" style="stop-color:#4E6CEC"/>
		<stop  offset="0.4" style="stop-color:#447BE4"/>
		<stop  offset="0.4667" style="stop-color:#3A8DDB"/>
		<stop  offset="0.5333" style="stop-color:#2F9FD1"/>
		<stop  offset="0.6" style="stop-color:#25B1C8"/>
		<stop  offset="0.6667" style="stop-color:#1BC0C0"/>
		<stop  offset="0.7333" style="stop-color:#13CEB9"/>
		<stop  offset="0.8" style="stop-color:#0DD8B4"/>
		<stop  offset="0.8667" style="stop-color:#08DFB0"/>
		<stop  offset="0.9333" style="stop-color:#06E4AE"/>
		<stop  offset="1" style="stop-color:#05E5AD"/>
	</radialGradient>
	<path style="fill:url(#SVGID_00000023255380273415410320000011123778238376014726_);" d="M79.3,66.2c0.9,5,2.3,9.2,3.9,12.1
		c-2.8,3-6,4.7-9.5,4.7c-2.5,0-4.9-0.9-7-2.5C72.1,77.8,76.5,72.7,79.3,66.2L79.3,66.2z"/>
	
		<radialGradient id="SVGID_00000080195286610815388960000003535370030223297200_" cx="-355.626" cy="454.1422" r="0.3906" gradientTransform="matrix(-45.966 -20.0362 -29.7075 68.1534 -2766.9541 -38047.7188)" gradientUnits="userSpaceOnUse">
		<stop  offset="0" style="stop-color:#6447FF"/>
		<stop  offset="6.670000e-02" style="stop-color:#6348FE"/>
		<stop  offset="0.1333" style="stop-color:#614DFC"/>
		<stop  offset="0.2" style="stop-color:#5C54F8"/>
		<stop  offset="0.2667" style="stop-color:#565EF3"/>
		<stop  offset="0.3333" style="stop-color:#4E6CEC"/>
		<stop  offset="0.4" style="stop-color:#447BE4"/>
		<stop  offset="0.4667" style="stop-color:#3A8DDB"/>
		<stop  offset="0.5333" style="stop-color:#2F9FD1"/>
		<stop  offset="0.6" style="stop-color:#25B1C8"/>
		<stop  offset="0.6667" style="stop-color:#1BC0C0"/>
		<stop  offset="0.7333" style="stop-color:#13CEB9"/>
		<stop  offset="0.8" style="stop-color:#0DD8B4"/>
		<stop  offset="0.8667" style="stop-color:#08DFB0"/>
		<stop  offset="0.9333" style="stop-color:#06E4AE"/>
		<stop  offset="1" style="stop-color:#05E5AD"/>
	</radialGradient>
	<path style="fill:url(#SVGID_00000080195286610815388960000003535370030223297200_);" d="M66.7,19.4c2.2-1.6,4.5-2.5,7-2.5
		c3.5,0,6.7,1.7,9.5,4.7c-1.6,3-3,7.1-3.9,12.1C76.5,27.3,72.1,22.2,66.7,19.4L66.7,19.4z"/>
	<path class="st3" d="M59.3,70.4c4.4-5.6,7-12.7,7-20.4c0-7.7-2.6-14.7-7-20.4c1.9-4.5,4.5-8,7.5-10.3c5.3,2.8,9.8,7.9,12.6,14.4
		c-0.9,4.8-1.4,10.3-1.4,16.3c0,5.9,0.5,11.5,1.4,16.3c-2.8,6.4-7.3,11.5-12.6,14.4C63.8,78.4,61.2,74.8,59.3,70.4L59.3,70.4z"/>
	<path class="st6" d="M59.3,70.4c-2.4-5.6-3.9-12.7-3.9-20.4c0-7.7,1.5-14.7,3.9-20.4c4.4,5.6,7,12.7,7,20.4
		C66.3,57.7,63.6,64.7,59.3,70.4z"/>
	<path class="st7" d="M83.3,21.6c1.7-3,3.6-4.7,5.7-4.7c6.1,0,11,14.8,11,33.1c0,18.3-4.9,33.1-11,33.1c-2.1,0-4-1.7-5.7-4.7
		c5.3-5.8,8.9-16.3,8.9-28.4C92.2,37.9,88.6,27.4,83.3,21.6z"/>
	
		<radialGradient id="SVGID_00000121993322055639022920000007935393569686683833_" cx="-342.0103" cy="448.8659" r="0.3906" gradientTransform="matrix(29.9068 0 0 -147.527 10318.1631 66269.4297)" gradientUnits="userSpaceOnUse">
		<stop  offset="0" style="stop-color:#05E5AD"/>
		<stop  offset="0.32" style="stop-color:#05E5AD;stop-opacity:0"/>
		<stop  offset="0.9028" style="stop-color:#6447FF"/>
	</radialGradient>
	<path style="fill:url(#SVGID_00000121993322055639022920000007935393569686683833_);" d="M83.3,21.6c1.7-3,3.6-4.7,5.7-4.7
		c6.1,0,11,14.8,11,33.1c0,18.3-4.9,33.1-11,33.1c-2.1,0-4-1.7-5.7-4.7c5.3-5.8,8.9-16.3,8.9-28.4C92.2,37.9,88.6,27.4,83.3,21.6z"
		/>
	<path class="st3" d="M82.6,50c0-5.9-1.2-11.5-3.3-16.3c0.9-5,2.3-9.2,3.9-12.1c5.3,5.8,8.9,16.3,8.9,28.4c0,12-3.6,22.6-8.9,28.4
		c-1.6-3-3-7.1-3.9-12.1C81.4,61.5,82.6,55.9,82.6,50z"/>
	<path class="st6" d="M79.3,66.3c-0.9-4.8-1.4-10.3-1.4-16.3c0-5.9,0.5-11.5,1.4-16.3c2.1,4.8,3.3,10.3,3.3,16.3
		C82.6,55.9,81.4,61.5,79.3,66.3z"/>
</g>
</svg>
