<?xml version="1.0" encoding="UTF-8"?>
<!DOCTYPE svg PUBLIC "-//W3C//DTD SVG 1.1//EN" "http://www.w3.org/Graphics/SVG/1.1/DTD/svg11.dtd">
<svg version="1.1" xmlns="http://www.w3.org/2000/svg" xmlns:xlink="http://www.w3.org/1999/xlink" x="0" y="0" width="1024" height="1024" viewBox="0, 0, 100, 100">
  <defs>
    <linearGradient id="Gradient_1" gradientUnits="userSpaceOnUse" x1="209.998" y1="224.042" x2="287.332" y2="298.658" gradientTransform="matrix(1, 0, 0, 1, -200, -213)">
      <stop offset="0" stop-color="#62A0EA"/>
      <stop offset="1" stop-color="#1A5FB4"/>
    </linearGradient>
  </defs>
  <g id="Layer_1">
    <g id="path6008">
      <path d="M48.26,2.274 C45.406,4.105 44.583,7.898 46.422,10.742 C56.531,26.397 58.917,38.205 57.882,48.553 C53.698,68.369 44.603,72.389 36.655,72.389 C28.895,72.389 30.973,59.618 36.806,55.88 C40.288,53.706 44.748,52.293 48.171,52.293 C51.563,52.293 54.313,49.552 54.313,46.17 C54.313,42.787 51.563,40.046 48.171,40.046 C44.173,40.046 40.251,40.886 36.59,42.316 C37.338,38.787 37.614,34.973 36.647,30.919 C35.179,24.763 30.953,18.883 23.615,13.183 C22.33,12.183 20.7,11.734 19.083,11.934 C17.466,12.134 15.995,12.966 14.994,14.248 C12.912,16.918 13.394,20.766 16.072,22.843 C22.05,27.486 24.024,30.923 24.699,33.752 C25.374,36.581 24.831,39.616 23.475,43.786 C21.742,49.406 19.73,54.423 18.848,59.234 C18.414,61.602 18.377,64.179 18.265,66.238 C13.96,62.042 12.275,56.502 12.275,48.407 C12.274,45.025 9.524,42.283 6.133,42.284 C2.744,42.287 -0.002,45.027 -0.003,48.407 C-0.003,59.463 3.23,69.983 11.895,77.001 C19.739,84.474 39.686,81.712 39.686,93.709 C39.686,97.095 44.642,98.743 48.033,98.743 C51.511,98.743 55.888,96.418 55.888,93.709 C55.888,80.097 70.233,71.824 93.848,71.86 C97.24,71.865 99.992,69.126 99.997,65.744 C100.003,62.361 97.259,59.614 93.867,59.608 C92.252,59.606 90.678,59.661 89.126,59.753 C91.766,53.544 92.937,46.708 92.695,39.324 C92.583,35.943 89.745,33.293 86.356,33.403 C82.963,33.513 80.305,36.346 80.416,39.729 C80.736,49.397 80.374,58.03 73.171,62.581 C71.123,63.874 68.742,64.996 66.484,64.996 C68.237,60.228 69.561,55.195 70.103,49.77 C70.449,46.308 70.486,42.195 70.091,39 C69.478,34.05 68.738,28.436 70.617,24.207 C72.305,20.565 76.087,19.04 81.64,19.04 C85.029,19.037 87.775,16.296 87.776,12.917 C87.778,9.534 85.031,6.79 81.64,6.787 C73.388,6.787 67.133,11.13 63.587,16.377 C61.733,12.417 59.475,8.336 56.747,4.112 C55.866,2.747 54.478,1.788 52.887,1.443 C52.099,1.272 51.285,1.257 50.491,1.399 C49.697,1.542 48.939,1.839 48.26,2.274 z" fill="url(#Gradient_1)"/>
      <path d="M51.691,1.304 L52.887,1.443 C54.478,1.788 55.866,2.747 56.747,4.112 C59.475,8.336 61.733,12.417 63.587,16.377 C67.133,11.13 73.388,6.787 81.64,6.787 C85.031,6.79 87.778,9.534 87.776,12.917 C87.775,16.296 85.029,19.037 81.64,19.04 C76.087,19.04 72.305,20.565 70.617,24.207 C68.738,28.436 69.478,34.05 70.091,39 C70.486,42.195 70.449,46.308 70.103,49.77 C69.561,55.195 68.237,60.228 66.484,64.996 C68.742,64.996 71.123,63.874 73.171,62.581 C80.374,58.03 80.736,49.397 80.416,39.729 C80.305,36.346 82.963,33.513 86.356,33.403 C89.745,33.293 92.583,35.943 92.695,39.324 C92.937,46.708 91.766,53.544 89.126,59.753 C90.678,59.661 92.252,59.606 93.867,59.608 C97.259,59.614 100.003,62.361 99.997,65.744 C99.992,69.126 97.24,71.865 93.848,71.86 C70.233,71.824 55.888,80.097 55.888,93.709 C55.888,96.418 51.511,98.743 48.033,98.743 C44.642,98.743 39.686,97.095 39.686,93.709 C39.686,81.712 19.739,84.474 11.895,77.001 C3.23,69.983 -0.003,59.463 -0.003,48.407 C-0.002,45.027 2.744,42.287 6.133,42.284 C9.524,42.283 12.274,45.025 12.275,48.407 C12.275,56.502 13.96,62.042 18.265,66.238 C18.377,64.179 18.414,61.602 18.848,59.234 C19.73,54.423 21.742,49.406 23.475,43.786 C24.831,39.616 25.374,36.581 24.699,33.752 C24.024,30.923 22.05,27.486 16.072,22.843 C13.394,20.766 12.912,16.918 14.994,14.248 C15.995,12.966 17.466,12.134 19.083,11.934 C20.7,11.734 22.33,12.183 23.615,13.183 C30.953,18.883 35.179,24.763 36.647,30.919 C37.614,34.973 37.338,38.787 36.59,42.316 C40.251,40.886 44.173,40.046 48.171,40.046 C51.563,40.046 54.313,42.787 54.313,46.17 C54.313,49.552 51.563,52.293 48.171,52.293 C44.748,52.293 40.288,53.706 36.806,55.88 C30.973,59.618 28.895,72.389 36.655,72.389 C44.603,72.389 53.698,68.369 57.882,48.553 C58.917,38.205 56.531,26.397 46.422,10.742 C44.583,7.898 45.406,4.105 48.26,2.274 C48.939,1.839 49.697,1.542 50.491,1.399 L51.691,1.304 z M51.682,1.804 L50.58,1.891 C49.85,2.023 49.153,2.296 48.53,2.695 L48.53,2.695 C45.909,4.376 45.153,7.859 46.842,10.471 C56.209,24.977 59.546,36.936 58.371,48.656 C54.709,66.003 47.213,72.889 36.655,72.889 C32.75,72.889 30.803,69.854 31.135,65.498 C31.438,61.507 33.6,57.341 36.541,55.456 C40.105,53.231 44.655,51.793 48.171,51.793 C51.287,51.793 53.813,49.275 53.813,46.17 C53.813,43.064 51.288,40.546 48.171,40.546 C44.37,40.546 40.517,41.319 36.772,42.782 L35.909,43.119 L36.101,42.212 C36.942,38.245 37.021,34.641 36.161,31.035 C34.705,24.929 30.481,19.149 23.308,13.578 C22.128,12.659 20.63,12.246 19.144,12.43 C17.658,12.614 16.307,13.379 15.388,14.555 C13.476,17.007 13.919,20.541 16.379,22.448 C21.776,26.64 24.346,30.118 25.185,33.636 C25.844,36.397 25.446,39.342 23.953,43.933 C23.641,44.943 23.308,45.976 22.898,47.214 C19.953,56.102 19.898,56.281 19.34,59.324 C19.224,59.954 19.132,60.628 19.058,61.361 C18.95,62.441 18.91,63.127 18.814,65.243 C18.794,65.684 18.78,65.977 18.764,66.265 L18.704,67.365 L17.916,66.596 C13.601,62.39 11.775,56.83 11.775,48.407 C11.774,45.301 9.248,42.783 6.133,42.784 C3.02,42.787 0.498,45.303 0.497,48.407 C0.497,60.405 4.283,70.193 12.24,76.639 C14.66,78.944 17.84,80.214 24.362,81.951 C24.658,82.03 24.955,82.109 25.547,82.266 C30.869,83.676 33.269,84.483 35.554,85.872 C38.599,87.723 40.186,90.224 40.186,93.709 C40.186,96.305 44.045,98.243 48.033,98.243 C51.527,98.243 55.388,95.92 55.388,93.709 C55.388,79.741 70.004,71.324 93.849,71.36 C96.964,71.365 99.492,68.849 99.497,65.743 C99.503,62.636 96.982,60.114 93.866,60.108 C92.34,60.106 90.791,60.155 89.156,60.252 L88.35,60.3 L88.666,59.557 C91.262,53.452 92.436,46.696 92.195,39.34 C92.092,36.236 89.486,33.802 86.372,33.903 C83.256,34.004 80.814,36.605 80.916,39.712 C81.345,52.685 79.827,58.967 73.438,63.004 C70.917,64.596 68.608,65.496 66.484,65.496 L65.767,65.496 L66.015,64.823 C67.897,59.705 69.101,54.768 69.605,49.72 C69.963,46.14 69.97,42.097 69.595,39.061 C69.552,38.717 69.552,38.717 69.509,38.37 C69.273,36.461 69.147,35.318 69.05,34.088 C68.715,29.835 68.989,26.641 70.163,23.997 C71.893,20.264 75.708,18.54 81.64,18.54 C84.753,18.537 87.275,16.02 87.276,12.917 C87.278,9.81 84.755,7.29 81.64,7.287 C74.221,7.287 67.875,10.924 64.001,16.657 L63.508,17.387 L63.134,16.589 C61.254,12.574 58.994,8.513 56.327,4.383 C55.518,3.13 54.243,2.249 52.781,1.932 L51.682,1.804 z" fill="#FFFFFF" fill-opacity="0.8"/>
    </g>
  </g>
</svg>
