<?xml version="1.0" encoding="UTF-8"?>
<!DOCTYPE svg PUBLIC "-//W3C//DTD SVG 1.1//EN" "http://www.w3.org/Graphics/SVG/1.1/DTD/svg11.dtd">
<svg version="1.1" xmlns="http://www.w3.org/2000/svg" xmlns:xlink="http://www.w3.org/1999/xlink" x="0" y="0" width="1024" height="1024" viewBox="0, 0, 1024, 1024">
  <defs>
    <linearGradient id="Gradient_1" gradientUnits="userSpaceOnUse" x1="361.979" y1="384.114" x2="1038.655" y2="1037.011" gradientTransform="matrix(1, 0, 0, 1, -200, -213)">
      <stop offset="0" stop-color="#62A0EA"/>
      <stop offset="1" stop-color="#1A5FB4"/>
    </linearGradient>
  </defs>
  <g id="codium_blue_light">
    <path d="M499.82,177.918 C479.842,190.735 474.081,217.286 486.954,237.194 C557.717,346.779 574.419,429.435 567.174,501.871 C537.886,640.583 474.221,668.723 418.585,668.723 C364.265,668.723 378.811,579.326 419.642,553.16 C444.016,537.942 475.236,528.051 499.197,528.051 C522.941,528.051 542.191,508.864 542.191,485.19 C542.191,461.509 522.941,442.322 499.197,442.322 C471.211,442.322 443.757,448.202 418.13,458.212 C423.366,433.509 425.298,406.811 418.529,378.433 C408.253,335.341 378.671,294.181 327.305,254.281 C318.31,247.281 306.9,244.138 295.581,245.538 C284.262,246.938 273.965,252.762 266.958,261.736 C252.384,280.426 255.758,307.362 274.504,321.901 C316.35,354.402 330.168,378.461 334.893,398.264 C339.618,418.067 335.817,439.312 326.325,468.502 C314.194,507.842 300.11,542.961 293.936,576.638 C290.898,593.214 290.639,611.253 289.855,625.666 C259.72,596.294 247.925,557.514 247.925,500.849 C247.918,477.175 228.668,457.981 204.931,457.988 C181.208,458.009 161.986,477.189 161.979,500.849 C161.979,578.241 184.61,651.881 245.265,701.007 C300.173,753.318 439.802,733.984 439.802,817.963 C439.802,841.665 474.494,853.201 498.231,853.201 C522.577,853.201 553.216,836.926 553.216,817.963 C553.216,722.679 653.631,664.768 818.936,665.02 C842.68,665.055 861.944,645.882 861.979,622.208 C862.021,598.527 842.813,579.298 819.069,579.256 C807.764,579.242 796.746,579.627 785.882,580.271 C804.362,536.808 812.559,488.956 810.865,437.268 C810.081,413.601 790.215,395.051 766.492,395.821 C742.741,396.591 724.135,416.422 724.912,440.103 C727.152,507.779 724.618,568.21 674.197,600.067 C659.861,609.118 643.194,616.972 627.388,616.972 C639.659,583.596 648.927,548.365 652.721,510.39 C655.143,486.156 655.402,457.365 652.637,435 C648.346,400.35 643.166,361.052 656.319,331.449 C668.135,305.955 694.609,295.28 733.48,295.28 C757.203,295.259 776.425,276.072 776.432,252.419 C776.446,228.738 757.217,209.53 733.48,209.509 C675.716,209.509 631.931,239.91 607.109,276.639 C594.131,248.919 578.325,220.352 559.229,190.784 C553.062,181.229 543.346,174.516 532.209,172.101 C526.693,170.904 520.995,170.799 515.437,171.793 C509.879,172.794 504.573,174.873 499.82,177.918 z" fill="url(#Gradient_1)" id="path6008"/>
  </g>
</svg>
