<?xml version="1.0" encoding="UTF-8"?>
<!DOCTYPE svg PUBLIC "-//W3C//DTD SVG 1.1//EN" "http://www.w3.org/Graphics/SVG/1.1/DTD/svg11.dtd">
<svg version="1.1" xmlns="http://www.w3.org/2000/svg" xmlns:xlink="http://www.w3.org/1999/xlink" x="0" y="0" width="40" height="40" viewBox="0, 0, 40, 40">
  <g id="codium_grey_hc_light_letterpress">
    <path d="M19.583,7.847 C18.898,8.287 18.701,9.197 19.142,9.88 C21.568,13.637 22.141,16.471 21.892,18.954 C20.888,23.71 18.705,24.675 16.798,24.675 C14.936,24.675 15.434,21.61 16.834,20.713 C17.67,20.191 18.74,19.852 19.562,19.852 C20.376,19.852 21.036,19.194 21.036,18.382 C21.036,17.571 20.376,16.913 19.562,16.913 C18.602,16.913 17.661,17.114 16.782,17.458 C16.962,16.611 17.028,15.695 16.796,14.722 C16.444,13.245 15.429,11.834 13.668,10.466 C13.36,10.226 12.969,10.118 12.581,10.166 C12.193,10.214 11.84,10.414 11.599,10.721 C11.1,11.362 11.215,12.286 11.858,12.784 C13.293,13.898 13.766,14.723 13.928,15.402 C14.09,16.081 13.96,16.81 13.635,17.81 C13.219,19.159 12.736,20.363 12.524,21.518 C12.42,22.086 12.411,22.705 12.384,23.199 C11.351,22.192 10.947,20.862 10.947,18.919 C10.946,18.108 10.286,17.45 9.473,17.45 C8.659,17.451 8,18.108 8,18.919 C8,21.573 8.776,24.098 10.856,25.782 C12.738,27.575 17.525,26.913 17.525,29.792 C17.525,30.604 18.715,31 19.529,31 C20.363,31 21.414,30.442 21.414,29.792 C21.414,26.525 24.857,24.539 30.524,24.548 C31.338,24.549 31.999,23.892 32,23.08 C32.001,22.268 31.343,21.609 30.529,21.608 C30.141,21.607 29.763,21.62 29.391,21.642 C30.025,20.152 30.306,18.512 30.248,16.739 C30.221,15.928 29.54,15.292 28.726,15.318 C27.912,15.345 27.274,16.025 27.301,16.837 C27.377,19.157 27.29,21.229 25.562,22.321 C25.07,22.631 24.499,22.901 23.957,22.901 C24.378,21.756 24.695,20.548 24.825,19.246 C24.908,18.416 24.917,17.428 24.823,16.662 C24.675,15.474 24.498,14.126 24.949,13.111 C25.354,12.237 26.262,11.871 27.594,11.871 C28.408,11.871 29.067,11.213 29.067,10.402 C29.067,9.59 28.408,8.931 27.594,8.931 C25.614,8.931 24.113,9.973 23.262,11.232 C22.817,10.282 22.275,9.302 21.62,8.289 C21.409,7.961 21.075,7.731 20.694,7.648 C20.504,7.607 20.309,7.603 20.119,7.637 C19.928,7.672 19.746,7.743 19.583,7.847 z" fill="#B2B2B2" id="path6008"/>
  </g>
</svg>
