<?xml version="1.0" encoding="UTF-8"?>
<!DOCTYPE svg PUBLIC "-//W3C//DTD SVG 1.1//EN" "http://www.w3.org/Graphics/SVG/1.1/DTD/svg11.dtd">
<svg version="1.1" xmlns="http://www.w3.org/2000/svg" xmlns:xlink="http://www.w3.org/1999/xlink" x="0" y="0" width="40" height="40" viewBox="0, 0, 40, 40">
  <g id="codium_grey_dark_letterpress">
    <path d="M19.582,8.546 C18.897,8.985 18.7,9.896 19.141,10.578 C21.567,14.335 22.14,17.169 21.892,19.653 C20.888,24.409 18.705,25.373 16.797,25.373 C14.935,25.373 15.434,22.308 16.833,21.411 C17.669,20.889 18.74,20.55 19.561,20.55 C20.375,20.55 21.035,19.892 21.035,19.081 C21.035,18.269 20.375,17.611 19.561,17.611 C18.602,17.611 17.66,17.813 16.782,18.156 C16.961,17.309 17.027,16.394 16.795,15.421 C16.443,13.943 15.429,12.532 13.668,11.164 C13.359,10.924 12.968,10.816 12.58,10.864 C12.192,10.912 11.839,11.112 11.599,11.42 C11.099,12.06 11.215,12.984 11.857,13.482 C13.292,14.597 13.766,15.422 13.928,16.1 C14.09,16.779 13.959,17.508 13.634,18.509 C13.218,19.857 12.735,21.062 12.524,22.216 C12.419,22.784 12.41,23.403 12.384,23.897 C11.35,22.89 10.946,21.56 10.946,19.618 C10.946,18.806 10.286,18.148 9.472,18.148 C8.659,18.149 8,18.806 7.999,19.618 C7.999,22.271 8.775,24.796 10.855,26.48 C12.737,28.274 17.525,27.611 17.525,30.49 C17.525,31.303 18.714,31.698 19.528,31.698 C20.363,31.698 21.413,31.14 21.413,30.49 C21.413,27.223 24.856,25.238 30.524,25.246 C31.338,25.248 31.998,24.59 31.999,23.779 C32.001,22.967 31.342,22.307 30.528,22.306 C30.14,22.305 29.763,22.319 29.39,22.341 C30.024,20.851 30.305,19.21 30.247,17.438 C30.22,16.626 29.539,15.99 28.725,16.017 C27.911,16.043 27.273,16.723 27.3,17.535 C27.377,19.855 27.29,21.927 25.561,23.019 C25.07,23.33 24.498,23.599 23.956,23.599 C24.377,22.455 24.695,21.247 24.825,19.945 C24.908,19.114 24.917,18.127 24.822,17.36 C24.675,16.172 24.497,14.825 24.948,13.81 C25.353,12.936 26.261,12.57 27.594,12.57 C28.407,12.569 29.066,11.911 29.066,11.1 C29.067,10.288 28.407,9.63 27.594,9.629 C25.613,9.629 24.112,10.671 23.261,11.93 C22.816,10.98 22.274,10.001 21.619,8.987 C21.408,8.659 21.075,8.429 20.693,8.346 C20.504,8.305 20.308,8.302 20.118,8.336 C19.927,8.37 19.745,8.441 19.582,8.546 z" fill="#B2B2B2" fill-opacity="0.3" id="path6008"/>
  </g>
</svg>
