<?xml version="1.0" encoding="UTF-8"?>
<!DOCTYPE svg PUBLIC "-//W3C//DTD SVG 1.1//EN" "http://www.w3.org/Graphics/SVG/1.1/DTD/svg11.dtd">
<svg version="1.1" xmlns="http://www.w3.org/2000/svg" xmlns:xlink="http://www.w3.org/1999/xlink" x="0" y="0" width="100" height="100" viewBox="0, 0, 100, 100">
  <defs>
    <linearGradient id="Gradient_1" gradientUnits="userSpaceOnUse" x1="209.998" y1="224.042" x2="287.332" y2="298.658" gradientTransform="matrix(1, 0, 0, 1, -200, -213)">
      <stop offset="0" stop-color="#FFA348"/>
      <stop offset="1" stop-color="#C64600"/>
    </linearGradient>
  </defs>
  <g id="Layer_1">
    <g id="path6008">
      <path d="M48.608,11.819 C46.325,13.284 45.666,16.318 47.138,18.594 C55.225,31.118 57.134,40.564 56.306,48.842 C52.958,64.695 45.682,67.911 39.324,67.911 C33.116,67.911 34.778,57.694 39.445,54.704 C42.23,52.965 45.798,51.834 48.537,51.834 C51.25,51.834 53.45,49.642 53.45,46.936 C53.45,44.23 51.25,42.037 48.537,42.037 C45.338,42.037 42.201,42.709 39.272,43.853 C39.87,41.03 40.091,37.978 39.318,34.735 C38.143,29.81 34.762,25.106 28.892,20.546 C27.864,19.746 26.56,19.387 25.266,19.547 C23.973,19.707 22.796,20.373 21.995,21.398 C20.33,23.534 20.715,26.613 22.858,28.274 C27.64,31.989 29.219,34.738 29.759,37.002 C30.299,39.265 29.865,41.693 28.78,45.029 C27.394,49.525 25.784,53.538 25.078,57.387 C24.731,59.282 24.702,61.343 24.612,62.99 C21.168,59.634 19.82,55.202 19.82,48.726 C19.819,46.02 17.619,43.826 14.906,43.827 C12.195,43.83 9.998,46.022 9.998,48.726 C9.998,57.57 12.584,65.986 19.516,71.601 C25.791,77.579 41.749,75.37 41.749,84.967 C41.749,87.676 45.714,88.994 48.426,88.994 C51.209,88.994 54.71,87.134 54.71,84.967 C54.71,74.078 66.186,67.459 85.078,67.488 C87.792,67.492 89.994,65.301 89.998,62.595 C90.002,59.889 87.807,57.691 85.094,57.686 C83.802,57.685 82.542,57.729 81.301,57.802 C83.413,52.835 84.35,47.366 84.156,41.459 C84.066,38.754 81.796,36.634 79.085,36.722 C76.37,36.81 74.244,39.077 74.333,41.783 C74.589,49.518 74.299,56.424 68.537,60.065 C66.898,61.099 64.994,61.997 63.187,61.997 C64.59,58.182 65.649,54.156 66.082,49.816 C66.359,47.046 66.389,43.756 66.073,41.2 C65.582,37.24 64.99,32.749 66.494,29.366 C67.844,26.452 70.87,25.232 75.312,25.232 C78.023,25.23 80.22,23.037 80.221,20.334 C80.222,17.627 78.025,15.432 75.312,15.43 C68.71,15.43 63.706,18.904 60.87,23.102 C59.386,19.934 57.58,16.669 55.398,13.29 C54.693,12.198 53.582,11.43 52.31,11.154 C51.679,11.018 51.028,11.006 50.393,11.119 C49.758,11.234 49.151,11.471 48.608,11.819 z" fill="url(#Gradient_1)"/>
      <path d="M51.362,10.543 L52.416,10.666 C53.818,10.97 55.041,11.816 55.818,13.018 C57.734,15.947 59.423,19.017 60.963,22.157 C64.338,17.352 69.654,15.277 75.312,14.93 C78.301,14.932 80.723,17.351 80.721,20.334 C80.72,23.313 78.299,25.729 75.312,25.732 C70.881,25.732 68.158,26.963 66.951,29.569 C66.087,31.511 65.88,33.933 66.137,37.199 C66.213,38.167 66.313,39.071 66.501,40.586 C66.535,40.863 66.535,40.863 66.569,41.139 C66.878,43.638 66.872,46.939 66.58,49.866 C66.231,53.824 65.173,57.668 63.909,61.421 C65.506,61.323 66.924,60.414 68.27,59.642 C73.015,56.644 74.167,51.877 73.833,41.799 C73.735,38.816 76.079,36.32 79.068,36.223 C82.056,36.126 84.557,38.462 84.656,41.443 C84.858,46.847 84.016,52.229 82.046,57.268 C83.841,57.186 82.825,57.221 85.094,57.186 C88.084,57.192 90.503,59.613 90.497,62.596 C90.493,65.578 88.067,67.992 85.078,67.988 C66.434,67.96 55.21,74.423 55.21,84.967 C55.21,87.355 51.654,89.494 48.426,89.494 C44.803,89.494 41.249,87.709 41.249,84.967 C41.249,80.548 38.51,78.883 30.207,76.682 C29.733,76.557 29.495,76.494 29.258,76.431 C23.892,75.001 21.256,73.949 19.201,71.989 C12.627,66.665 9.498,58.575 9.498,48.725 C9.498,45.745 11.919,43.33 14.906,43.327 C17.895,43.326 20.319,45.743 20.32,48.726 C20.367,53.295 20.945,58.237 24.17,61.767 C24.206,60.843 24.266,59.92 24.351,58.999 C24.413,58.389 24.49,57.827 24.587,57.297 C25.044,54.801 25.088,54.66 27.464,47.488 C27.791,46.504 28.055,45.683 28.305,44.874 C29.454,41.339 29.753,39.129 29.273,37.118 C28.654,34.526 26.719,31.907 22.551,28.67 C20.19,26.839 19.765,23.445 21.601,21.091 C22.483,19.961 23.78,19.227 25.205,19.051 C26.63,18.875 28.067,19.271 29.199,20.152 C35.087,24.725 38.587,29.515 39.804,34.619 C40.381,37.929 40.376,37.1 40.164,41.533 C40.138,42.065 39.989,42.584 39.902,43.11 C42.646,41.984 45.607,41.684 48.537,41.537 C51.526,41.537 53.95,43.953 53.95,46.936 C53.95,49.918 51.526,52.334 48.537,52.334 C45.902,52.334 42.424,53.433 39.715,55.125 C37.622,56.466 36.028,59.538 35.805,62.467 C35.575,65.486 36.81,67.411 39.324,67.411 C47.32,67.411 52.97,62.221 55.808,48.793 C56.72,39.675 54.106,30.307 46.718,18.865 C45.096,16.357 45.822,13.013 48.338,11.398 L48.338,11.398 C48.936,11.015 49.604,10.753 50.305,10.627 L51.362,10.543 z M51.353,11.043 L50.393,11.119 C49.758,11.234 49.151,11.471 48.608,11.819 C46.325,13.284 45.666,16.318 47.138,18.594 C55.225,31.118 57.134,40.564 56.306,48.842 C52.958,64.695 45.682,67.911 39.324,67.911 C33.116,67.911 34.778,57.694 39.445,54.704 C42.23,52.965 45.798,51.834 48.537,51.834 C51.25,51.834 53.45,49.642 53.45,46.936 C53.45,44.23 51.25,42.037 48.537,42.037 C45.338,42.037 42.201,42.709 39.272,43.853 C39.87,41.03 40.091,37.978 39.318,34.735 C38.143,29.81 34.762,25.106 28.892,20.546 C27.864,19.746 26.56,19.387 25.266,19.547 C23.973,19.707 22.796,20.373 21.995,21.398 C20.33,23.534 20.715,26.613 22.858,28.274 C27.64,31.989 29.219,34.738 29.759,37.002 C30.299,39.265 29.865,41.693 28.78,45.029 C27.394,49.525 25.784,53.538 25.078,57.387 C24.731,59.282 24.702,61.343 24.612,62.99 C21.168,59.634 19.82,55.202 19.82,48.726 C19.819,46.02 17.619,43.826 14.906,43.827 C12.195,43.83 9.998,46.022 9.998,48.726 C9.998,57.57 12.584,65.986 19.516,71.601 C25.791,77.579 41.749,75.37 41.749,84.967 C41.749,87.676 45.714,88.994 48.426,88.994 C51.209,88.994 54.71,87.134 54.71,84.967 C54.71,74.078 66.186,67.459 85.078,67.488 C87.792,67.492 89.994,65.301 89.998,62.595 C90.002,59.889 87.807,57.691 85.094,57.686 C83.802,57.685 82.542,57.729 81.301,57.802 C83.413,52.835 84.35,47.366 84.156,41.459 C84.066,38.754 81.796,36.634 79.085,36.722 C76.37,36.81 74.244,39.077 74.333,41.783 C74.589,49.518 74.299,56.424 68.537,60.065 C66.898,61.099 64.994,61.997 63.187,61.997 C64.59,58.182 65.649,54.156 66.082,49.816 C66.359,47.046 66.389,43.756 66.073,41.2 C65.582,37.24 64.99,32.749 66.494,29.366 C67.844,26.452 70.87,25.232 75.312,25.232 C78.023,25.23 80.22,23.037 80.221,20.334 C80.222,17.627 78.025,15.432 75.312,15.43 C68.71,15.43 63.706,18.904 60.87,23.102 C59.386,19.934 57.58,16.669 55.398,13.29 C54.693,12.198 53.582,11.43 52.31,11.154 L51.353,11.043 z" fill="#FFFFFF" fill-opacity="0.8"/>
    </g>
  </g>
</svg>
